<?xml version="1.0" encoding="UTF-8"?><svg id="Layer_1" xmlns="http://www.w3.org/2000/svg" viewBox="0 0 80 80"><defs><style>.cls-1{fill:#393838;}.cls-2{fill:#6b6766;}.cls-3{fill:#504e4e;}.cls-4{fill:#827d7d;}.cls-5{fill:#b2aeae;}.cls-6{fill:#9c9696;}.cls-7{fill:#ccc7c7;}</style></defs><g id="rainbow_light"><path id="violet" class="cls-7" d="M76.5,56.25c1.99-.29,3.5-1.95,3.5-3.96v-4.29c-8.84,0-16.84,3.58-22.63,9.37s-9.37,13.79-9.37,22.63h4.29c2.01,0,3.67-1.5,3.96-3.5,.76-5.23,3.21-9.91,6.78-13.47s8.25-6.01,13.47-6.78Z"/><path id="indigo" class="cls-5" d="M80,48v-8c-22.09,0-40,17.91-40,40h8c0-17.67,14.33-32,32-32Z"/><path id="blue" class="cls-6" d="M80,40v-8c-26.51,0-48,21.49-48,48h8c0-22.09,17.91-40,40-40Z"/><path id="green" class="cls-4" d="M80,32v-8c-30.93,0-56,25.07-56,56h8c0-26.51,21.49-48,48-48Z"/><path id="yellow" class="cls-2" d="M80,24v-8C44.65,16,16,44.65,16,80h8c0-30.93,25.07-56,56-56Z"/><path id="orange" class="cls-3" d="M80,16V8C40.24,8,8,40.24,8,80H16c0-35.35,28.65-64,64-64Z"/><path id="red" class="cls-1" d="M80,8v-3.89c0-2.28-1.9-4.12-4.18-4C34.97,2.21,2.21,34.97,.11,75.82c-.12,2.27,1.72,4.18,4,4.18h3.89C8,40.24,40.24,8,80,8Z"/></g></svg>
