<svg xmlns="http://www.w3.org/2000/svg"
 width="700.000000pt" height="700.000000pt" viewBox="0 0 700.000000 700.000000"
 preserveAspectRatio="xMidYMid meet">
<metadata>
Created by potrace 1.14, written by Peter Selinger 2001-2017
</metadata>
<g transform="translate(0.000000,700.000000) scale(0.100000,-0.100000)"
fill="#000000" stroke="none">
<path d="M2097 6124 c-1 -1 -31 -4 -67 -8 -423 -39 -815 -439 -857 -876 -3
-36 -6 -587 -6 -1225 0 -1065 2 -1165 17 -1218 30 -100 115 -205 213 -262 90
-54 108 -55 755 -55 l598 0 0 -765 c0 -747 0 -767 21 -827 11 -34 33 -80 49
-103 67 -97 188 -178 290 -194 58 -9 762 -6 805 3 114 25 256 147 305 262 l25
59 3 780 c1 428 4 780 6 782 1 1 273 3 603 3 653 1 654 1 751 57 95 56 177
160 209 264 14 49 16 209 17 1682 1 1076 -2 1631 -9 1635 -8 5 -3722 11 -3728
6z m1499 -664 c1 -237 4 -255 50 -315 101 -132 344 -79 379 83 4 18 7 129 7
246 l-1 214 260 -1 259 0 0 -530 c0 -378 3 -541 12 -569 15 -51 72 -112 123
-131 102 -38 225 4 275 93 l25 45 2 505 c1 278 2 524 3 546 l0 42 203 0 202
-1 0 -823 0 -824 -1895 0 -1896 0 2 583 c0 320 4 597 8 615 35 171 161 332
316 403 97 45 125 46 915 45 l749 -1 2 -225z m1759 -1859 l40 -1 0 -333 c0
-182 -3 -336 -7 -342 -4 -7 -642 -10 -1885 -9 -1033 1 -1883 2 -1888 3 -7 1
-10 118 -10 341 -1 289 2 340 14 342 12 2 3594 1 3736 -1z"/>
</g>
</svg>
