<?xml version="1.0" encoding="UTF-8" standalone="no"?>
<!-- Created with Inkscape (http://www.inkscape.org/) -->

<svg
   width="135.46666mm"
   height="135.46666mm"
   viewBox="0 0 135.46666 135.46666"
   version="1.1"
   id="svg1"
   xml:space="preserve"
   inkscape:export-filename="icon-72x72.png"
   inkscape:export-xdpi="13.500001"
   inkscape:export-ydpi="13.500001"
   inkscape:version="1.3.2 (091e20ef0f, 2023-11-25)"
   sodipodi:docname="icon.svg"
   xmlns:inkscape="http://www.inkscape.org/namespaces/inkscape"
   xmlns:sodipodi="http://sodipodi.sourceforge.net/DTD/sodipodi-0.dtd"
   xmlns="http://www.w3.org/2000/svg"
   xmlns:svg="http://www.w3.org/2000/svg"><sodipodi:namedview
     id="namedview1"
     pagecolor="#ffffff"
     bordercolor="#000000"
     borderopacity="0.25"
     inkscape:showpageshadow="2"
     inkscape:pageopacity="0.0"
     inkscape:pagecheckerboard="0"
     inkscape:deskcolor="#d1d1d1"
     inkscape:document-units="mm"
     inkscape:export-bgcolor="#191919ff"
     inkscape:zoom="1.4142136"
     inkscape:cx="223.09219"
     inkscape:cy="249.96225"
     inkscape:window-width="1920"
     inkscape:window-height="1011"
     inkscape:window-x="0"
     inkscape:window-y="0"
     inkscape:window-maximized="1"
     inkscape:current-layer="layer2" /><defs
     id="defs1" /><g
     inkscape:groupmode="layer"
     id="layer2"
     inkscape:label="Background"><rect
       style="fill:#191919;fill-opacity:1;stroke:#000000;stroke-width:0;stroke-dasharray:none"
       id="rect1"
       x="0"
       y="0"
       width="135.467"
       height="135.46666" /></g><g
     inkscape:groupmode="layer"
     id="layer3"
     inkscape:label="Logo"><path
       d="m 122.04879,91.871695 c 2.96555,-0.432217 5.2158,-2.90594 5.2158,-5.901299 v -6.39307 c -13.17361,0 -25.09542,5.335011 -33.723833,13.963419 C 84.912334,102.16917 79.57733,114.09099 79.57733,127.26459 h 6.393063 c 2.995366,0 5.469134,-2.23534 5.901307,-5.21579 1.13257,-7.79389 4.783617,-14.76815 10.10374,-20.07336 5.32011,-5.305213 12.29437,-8.956267 20.07335,-10.103745 z"
       style="fill:#6d43ea;stroke-width:1.49023"
       id="path2"
       inkscape:export-filename="path2.svg"
       inkscape:export-xdpi="96"
       inkscape:export-ydpi="96" /><path
       d="M 127.26459,79.577326 V 67.655509 c -32.919113,0 -59.609077,26.689967 -59.609077,59.609081 H 79.57733 c 0,-26.33232 21.35495,-47.687264 47.68726,-47.687264 z"
       style="fill:#435fea;stroke-width:1.49023"
       id="path3" /><path
       d="M 127.26459,67.655509 V 55.733695 c -39.505911,0 -71.530892,32.024979 -71.530892,71.530895 h 11.921815 c 0,-32.919114 26.689964,-59.609081 59.609077,-59.609081 z"
       style="fill:#1986e6;stroke-width:1.49023"
       id="path4" /><path
       d="M 127.26459,55.733695 V 43.811881 c -46.092722,0 -83.452708,37.35999 -83.452708,83.452709 h 11.921816 c 0,-39.505916 32.024981,-71.530895 71.530892,-71.530895 z"
       style="fill:#15bc34;stroke-width:1.49023"
       id="path5" /><path
       d="M 127.26459,43.811881 V 31.890066 c -52.679524,0 -95.374523,42.695003 -95.374523,95.374524 h 11.921815 c 0,-46.092719 37.359986,-83.452709 83.452708,-83.452709 z"
       style="fill:#e69e19;stroke-width:1.49023"
       id="path6" /><path
       d="M 127.26459,31.890066 V 19.96825 c -59.251422,0 -107.296338,48.030011 -107.296338,107.29634 h 11.921815 c 0,-52.679521 42.694999,-95.374524 95.374523,-95.374524 z"
       style="fill:#e66b19;stroke-width:1.49023"
       id="path7" /><path
       d="m 127.26459,19.96825 v -5.796982 c 0,-3.397717 -2.83143,-6.1397342 -6.22915,-5.960907 C 60.159671,11.339837 11.339838,60.144766 8.2103607,121.03544 c -0.178824,3.38282 2.5631913,6.22915 5.9609083,6.22915 h 5.796983 c 0,-59.266329 48.044916,-107.29634 107.296338,-107.29634 z"
       style="fill:#ea4343;stroke-width:1.49023"
       id="path8" /></g></svg>
