<svg id="Ebene_1" data-name="Ebene 1" xmlns="http://www.w3.org/2000/svg" viewBox="0 0 742.9341 170.6222">
  <g>
    <g id="logoMark">
      <path id="logoMark_PathItem_" data-name="logoMark &lt;PathItem&gt;" d="M427.3725,21.2872c0,9.873-5.9008,15.218-13.3629,15.218S400.4984,34.81,400.4984,18.6287c0-16.3251,6.5544-20.5755,13.5112-17.8765C421.3114,3.5849,427.3725,11.4143,427.3725,21.2872Z" style="fill: #4472c4"/>
      <path id="logoMark_PathItem_2" data-name="logoMark &lt;PathItem&gt;" d="M364.1682,21.2872c0,9.873,5.9008,15.218,13.3628,15.218s13.5112-1.6949,13.5112-17.8765c0-16.3251-6.5543-20.5755-13.5112-17.8765C370.2292,3.5849,364.1682,11.4143,364.1682,21.2872Z" style="fill: #4472c4"/>
      <path id="logoMark_PathItem_3" data-name="logoMark &lt;PathItem&gt;" d="M456.5343,41.1373c-1.6831,8.5406-5.1553,13.03-11.7346,13.03S431.2282,49.3817,432.6878,40.8c.9515-5.5947,5.5592-15.0312,15.4085-18.1557C454.9567,20.4679,458.0639,33.375,456.5343,41.1373Z" style="fill: #4472c4"/>
      <path id="logoMark_PathItem_4" data-name="logoMark &lt;PathItem&gt;" d="M335.0064,41.1373c1.683,8.5406,5.1553,13.03,11.7345,13.03s13.5715-4.7858,12.112-13.3675c-.9515-5.5947-5.5593-15.0312-15.4086-18.1557C336.584,20.4679,333.4767,33.375,335.0064,41.1373Z" style="fill: #4472c4"/>
      <path id="logoMark_PathItem_5" data-name="logoMark &lt;PathItem&gt;" d="M397.0506,139.2159a47.9885,47.9885,0,1,1,36.2363-79.4336L418.9412,72.2394a28.9885,28.9885,0,1,0,0,37.976l14.3457,12.458A47.9794,47.9794,0,0,1,397.0506,139.2159Z" style="fill: #4472c4"/>
    </g>
    <path id="fullLogo" d="M540.4,91.5529a58.7472,58.7472,0,0,1-3.1318,19.6621,43.5143,43.5143,0,0,1-8.8741,15.1377,39.8983,39.8983,0,0,1-13.833,9.7441,44.69,44.69,0,0,1-17.8349,3.48,44.048,44.048,0,0,1-17.7481-3.48,40.0917,40.0917,0,0,1-13.7461-9.7441,44.5763,44.5763,0,0,1-8.9609-15.1377,57.244,57.244,0,0,1-3.22-19.6621,56.52,56.52,0,0,1,3.22-19.5752,43.98,43.98,0,0,1,9.0478-15.0508A39.967,39.967,0,0,1,479.1519,47.27a44.567,44.567,0,0,1,17.5742-3.3926,45.2154,45.2154,0,0,1,17.66,3.3926,38.92,38.92,0,0,1,13.833,9.6572,44.8149,44.8149,0,0,1,8.962,15.0508A56.6115,56.6115,0,0,1,540.4,91.5529Zm-21.5762,0q0-13.5718-5.8291-21.4893-5.8315-7.9159-16.2685-7.917-10.44,0-16.27,7.917-5.8315,7.92-5.8291,21.4893,0,13.7475,5.8291,21.75,5.8287,8.0053,16.27,8.0039t16.2685-8.0039Q518.8218,105.3019,518.8237,91.5529Z" style="fill: #fff"/>
    <path id="fullLogo-2" data-name="fullLogo" d="M639.0562,134.3566a124.3,124.3,0,0,1-15.7471,3.48,122.21,122.21,0,0,1-19.9229,1.5655,53.12,53.12,0,0,1-19.3134-3.3057,40.1942,40.1942,0,0,1-14.5293-9.4834,41.7112,41.7112,0,0,1-9.2217-14.9639,57.0408,57.0408,0,0,1-3.22-19.749,66.5085,66.5085,0,0,1,2.6972-19.5752,42.8336,42.8336,0,0,1,7.917-15.0508,35.2959,35.2959,0,0,1,12.7022-9.6572,41.3081,41.3081,0,0,1,17.2255-3.3926,39.4013,39.4013,0,0,1,11.6582,1.5664,52.224,52.224,0,0,1,8.7,3.48V5.5968l21.0538-3.48ZM578.6782,91.379q0,13.9219,6.6123,21.8369,6.611,7.9189,18.27,7.917a72.3952,72.3952,0,0,0,8.6132-.4355,57.4642,57.4642,0,0,0,5.8291-.957V67.5411a32.7593,32.7593,0,0,0-7.3945-3.5673,28.9308,28.9308,0,0,0-9.831-1.6534q-11.4845,0-16.7911,7.83Q578.6758,77.9816,578.6782,91.379Z" style="fill: #fff"/>
    <path id="fullLogo-3" data-name="fullLogo" d="M660.8052,92.0743a57.1639,57.1639,0,0,1,3.5674-21.0537A44.1782,44.1782,0,0,1,673.856,55.97a39.2166,39.2166,0,0,1,13.5712-9.0479,42.0576,42.0576,0,0,1,15.66-3.0449q18.7924,0,29.3193,11.6572,10.5249,11.66,10.5274,34.8008,0,1.74-.0879,3.915-.0894,2.1768-.2608,3.9151h-60.03q.8687,10.9614,7.7431,16.9648,6.8716,6.003,19.9229,6.0029A65.3611,65.3611,0,0,0,724.229,119.74a57.6409,57.6409,0,0,0,10.0049-2.958l2.7842,17.2265a33.4319,33.4319,0,0,1-4.7852,1.8272,67.4381,67.4381,0,0,1-6.96,1.7392q-3.9155.7838-8.4394,1.3057a80.5066,80.5066,0,0,1-9.2217.5215,55.8442,55.8442,0,0,1-20.88-3.5664,38.8522,38.8522,0,0,1-14.6162-9.918,40.6236,40.6236,0,0,1-8.5263-14.9639A61.08,61.08,0,0,1,660.8052,92.0743Zm61.0742-9.3955a27.7117,27.7117,0,0,0-1.2178-8.2646,19.9361,19.9361,0,0,0-3.5674-6.7861,16.8834,16.8834,0,0,0-5.7412-4.5245,18.3311,18.3311,0,0,0-8.0918-1.6533,18.835,18.835,0,0,0-8.5254,1.8272,19.43,19.43,0,0,0-6.1767,4.7851,21.8613,21.8613,0,0,0-3.9151,6.7862,36.6041,36.6041,0,0,0-1.914,7.83Z" style="fill: #fff"/>
    <path id="fullLogo-4" data-name="fullLogo" d="M83.8379,91.2345a65.931,65.931,0,0,1-2.7588,19.58,45.6919,45.6919,0,0,1-7.9209,15.3076,35.1839,35.1839,0,0,1-12.9053,9.9687,41.535,41.535,0,0,1-17.5332,3.56,43.3,43.3,0,0,1-12.1035-1.6015,45.0633,45.0633,0,0,1-9.0781-3.5606v36.1338H0V47.6242q6.5831-1.7769,16.1982-3.3819A123.438,123.438,0,0,1,36.49,42.6408,54.3619,54.3619,0,0,1,56.248,46.0226a41.2349,41.2349,0,0,1,14.8633,9.7012,42.77,42.77,0,0,1,9.4336,15.3076A58.4516,58.4516,0,0,1,83.8379,91.2345Zm-22.0723.3564q0-14.4185-6.497-22.4287-6.5-8.01-20.9151-8.01-3.0277,0-6.3183.2666a34.85,34.85,0,0,0-6.4971,1.1572V115.799a33.179,33.179,0,0,0,7.5644,3.6484A29.5373,29.5373,0,0,0,39.16,121.1388q11.748,0,17.1767-8.0107T61.7656,91.5909Z" style="fill: #fff"/>
    <path id="fullLogo-5" data-name="fullLogo" d="M137.0586,42.2843q10.68,0,17.9785,2.67a28.7313,28.7313,0,0,1,11.6592,7.4766,28.0291,28.0291,0,0,1,6.23,11.6592,57.0677,57.0677,0,0,1,1.8691,15.041v56.4258q-4.9848,1.0678-15.041,2.581a153.874,153.874,0,0,1-22.6953,1.5127,68.1485,68.1485,0,0,1-15.3076-1.6015,32.1469,32.1469,0,0,1-11.8369-5.1622,24.3175,24.3175,0,0,1-7.6543-9.2558,32.0837,32.0837,0,0,1-2.7588-14.0625A27.1421,27.1421,0,0,1,102.6162,96.04a25.5469,25.5469,0,0,1,8.4551-8.9883,36.5975,36.5975,0,0,1,12.37-4.9844,69.7523,69.7523,0,0,1,14.6856-1.5127,66.7047,66.7047,0,0,1,7.4755.4444,70.0751,70.0751,0,0,1,8.3663,1.5136V78.9523a27.9443,27.9443,0,0,0-.89-7.12,14.8123,14.8123,0,0,0-3.1152-5.9629,14.64,14.64,0,0,0-5.8741-4.0049,25.4543,25.4543,0,0,0-9.1669-1.4238,81.2482,81.2482,0,0,0-13.7061,1.0683A60.2572,60.2572,0,0,0,111.0713,64L108.4,46.5568a85.0869,85.0869,0,0,1,11.9267-2.8487A93.6,93.6,0,0,1,137.0586,42.2843Zm1.78,80.2783a80.1682,80.1682,0,0,0,15.13-1.0683V97.6427a42.0164,42.0164,0,0,0-5.1622-1.0684,48.2087,48.2087,0,0,0-7.4755-.5341,49.7832,49.7832,0,0,0-7.209.5341,22.5013,22.5013,0,0,0-6.586,1.9581,11.9569,11.9569,0,0,0-4.7168,4.0048,11.1788,11.1788,0,0,0-1.78,6.4971q0,7.6552,4.8056,10.5908T138.8389,122.5626Z" style="fill: #fff"/>
    <path id="fullLogo-6" data-name="fullLogo" d="M254.9844,79.131q-4.0927,15.6649-8.8057,30.5264-4.7139,14.8652-9.334,28.0351H219.1621q-3.5669-8.1855-7.49-18.69-3.9214-10.5-7.8457-22.4278-3.9214-11.9223-7.8457-25.0976-3.9215-13.17-7.6651-26.8779h22.792q1.61,7.4751,3.7549,16.1084,2.1445,8.6367,4.4717,17.622,2.3276,8.9913,4.831,17.5332,2.5035,8.5445,5.01,15.6641,2.6733-8.1855,5.2617-16.91,2.5869-8.7187,4.9063-17.4433,2.3188-8.72,4.372-16.999t3.6573-15.5752h16.5537q1.5981,7.3007,3.5517,15.5752,1.9527,8.2763,4.1719,16.999t4.7949,17.4433q2.5738,8.7233,5.24,16.91,2.3232-7.1176,4.8281-15.6641,2.5034-8.5444,4.92-17.5332,2.4156-8.9853,4.5615-17.622,2.1446-8.6309,3.7569-16.1084h22.2558q-3.7455,13.7079-7.6679,26.8779-3.9214,13.1748-7.8457,25.0976-3.9258,11.9283-7.8487,22.4278-3.9213,10.5058-7.665,18.69H273.4717q-4.6232-13.17-9.5127-28.0351Q259.0708,94.7979,254.9844,79.131Z" style="fill: #fff"/>
  </g>
</svg>
