<?xml version="1.0" encoding="UTF-8"?><svg id="Layer_1" xmlns="http://www.w3.org/2000/svg" viewBox="0 0 302.43 85.1"><defs><style>.cls-1{fill:#ea4343;}.cls-2{fill:#e69e19;}.cls-3{fill:#e66b19;}.cls-4{fill:#15bc34;}.cls-5{fill:#435fea;}.cls-6{fill:#1986e6;}.cls-7{fill:#6d43ea;}</style></defs><g><path class="cls-1" d="M80,12.63v-3.9c0-2.28-1.9-4.12-4.18-4.01C34.91,6.83,2.11,39.63,0,80.54c-.12,2.28,1.73,4.18,4.01,4.18h3.9C7.91,44.9,40.18,12.63,80,12.63Z"/><path class="cls-3" d="M7.91,84.72H15.92c0-35.39,28.69-64.08,64.08-64.08V12.63C40.25,12.63,7.91,44.97,7.91,84.72Z"/><path class="cls-3" d="M7.91,84.72C7.91,44.97,40.25,12.63,80,12.63,40.18,12.63,7.91,44.9,7.91,84.72Z"/><path class="cls-2" d="M15.92,84.72h8.01c0-30.97,25.1-56.07,56.07-56.07v-8.01C44.67,20.64,15.92,49.38,15.92,84.72Z"/><path class="cls-2" d="M15.92,84.72c0-35.33,28.75-64.08,64.08-64.08C44.61,20.64,15.92,49.33,15.92,84.72Z"/><path class="cls-4" d="M23.93,84.72h8.01c0-26.54,21.52-48.06,48.06-48.06v-8.01c-30.92,0-56.07,25.15-56.07,56.07Z"/><path class="cls-4" d="M23.93,84.72c0-30.92,25.15-56.07,56.07-56.07-30.97,0-56.07,25.1-56.07,56.07Z"/><path class="cls-6" d="M31.94,84.72h8.01c0-22.12,17.93-40.05,40.05-40.05v-8.01c-26.5,0-48.06,21.56-48.06,48.06Z"/><path class="cls-6" d="M31.94,84.72c0-26.5,21.56-48.06,48.06-48.06-26.54,0-48.06,21.52-48.06,48.06Z"/><path class="cls-5" d="M39.95,84.72h8.01c0-17.7,14.35-32.04,32.04-32.04v-8.01c-22.08,0-40.05,17.97-40.05,40.05Z"/><path class="cls-5" d="M39.95,84.72c0-22.08,17.97-40.05,40.05-40.05-22.12,0-40.05,17.93-40.05,40.05Z"/><path class="cls-7" d="M47.96,84.72h4.29c2.02,0,3.68-1.5,3.97-3.5,.77-5.23,3.22-9.91,6.79-13.48s8.26-6.03,13.48-6.79c1.99-.29,3.5-1.95,3.5-3.97v-4.29c-8.83,0-16.84,3.59-22.65,9.4s-9.4,13.81-9.4,22.65Z"/><path class="cls-7" d="M47.96,84.72c0-17.67,14.37-32.04,32.04-32.04-17.7,0-32.04,14.35-32.04,32.04Z"/></g><g><path d="M102.19,4.9c8.51,0,12.76,4.9,12.76,10.93,0,4.35-2.37,8.46-7.72,10.04l8.01,13.75h-9.54l-7.22-13.11h-2.03v13.11h-8.46V4.9h14.19Zm-.5,7.02h-5.24v8.6h5.24c3.17,0,4.65-1.63,4.65-4.35,0-2.57-1.48-4.25-4.65-4.25Z"/><path d="M129.67,11.62c4.11,0,7.02,1.88,8.51,4.3v-3.91h8.46v27.6h-8.46v-3.91c-1.53,2.42-4.45,4.3-8.56,4.3-6.73,0-12.12-5.54-12.12-14.24s5.39-14.14,12.17-14.14Zm2.47,7.37c-3.17,0-6.03,2.37-6.03,6.78s2.87,6.87,6.03,6.87,6.03-2.42,6.03-6.83-2.82-6.82-6.03-6.82Z"/><path d="M151.45,4.6c0-2.57,2.03-4.6,5.04-4.6s5,2.03,5,4.6-2.03,4.55-5,4.55-5.04-2.03-5.04-4.55Zm.79,7.42h8.46v27.6h-8.46V12.02Z"/><path d="M185.27,24.63c0-3.76-2.08-5.84-5.29-5.84s-5.29,2.08-5.29,5.84v14.99h-8.46V12.02h8.46v3.66c1.68-2.32,4.65-3.96,8.36-3.96,6.38,0,10.63,4.35,10.63,11.77v16.12h-8.41v-14.99Z"/><path d="M216.03,11.62c6.82,0,12.17,5.44,12.17,14.14s-5.39,14.24-12.17,14.24c-4.06,0-6.97-1.83-8.51-4.25v3.86h-8.46V3.02h8.46V15.92c1.53-2.47,4.55-4.3,8.51-4.3Zm-2.52,7.37c-3.17,0-6.03,2.42-6.03,6.82s2.87,6.83,6.03,6.83,6.08-2.47,6.08-6.87-2.87-6.78-6.08-6.78Z"/><path d="M244.91,40.01c-8.11,0-14.24-5.44-14.24-14.19s6.28-14.19,14.34-14.19,14.34,5.44,14.34,14.19-6.33,14.19-14.44,14.19Zm0-7.32c3.02,0,5.84-2.23,5.84-6.87s-2.77-6.87-5.74-6.87-5.74,2.18-5.74,6.87,2.57,6.87,5.64,6.87Z"/><path d="M259.94,12.02h8.46l3.91,19.73,4.65-19.73h8.95l4.7,19.63,3.86-19.63h7.96l-7.47,27.6h-9.35l-4.35-17.9-4.5,17.9h-9.3l-7.52-27.6Z"/><path d="M101.7,72.24h-5.24v12.46h-8.46V49.99h13.7c8.51,0,12.76,4.8,12.76,11.18,0,5.74-3.91,11.08-12.76,11.08Zm-.64-6.73c3.36,0,4.8-1.68,4.8-4.35s-1.43-4.35-4.8-4.35h-4.6v8.7h4.6Z"/><path d="M128.39,56.71c4.11,0,7.02,1.88,8.51,4.3v-3.91h8.46v27.6h-8.46v-3.91c-1.53,2.42-4.45,4.3-8.56,4.3-6.73,0-12.12-5.54-12.12-14.24s5.39-14.14,12.17-14.14Zm2.47,7.37c-3.17,0-6.03,2.37-6.03,6.78s2.87,6.87,6.03,6.87,6.03-2.42,6.03-6.83-2.82-6.82-6.03-6.82Z"/><path d="M150.91,48.11h8.46v36.6h-8.46V48.11Z"/><path d="M177.31,85.1c-8.11,0-13.95-5.44-13.95-14.19s5.74-14.19,13.95-14.19,13.75,5.34,13.75,13.75c0,.79-.05,1.63-.15,2.47h-19.14c.3,3.61,2.52,5.29,5.24,5.29,2.37,0,3.71-1.19,4.4-2.67h9c-1.34,5.39-6.23,9.54-13.11,9.54Zm-5.49-16.86h10.58c0-3.02-2.37-4.75-5.19-4.75s-4.9,1.68-5.39,4.75Z"/><path d="M196.1,64.13h-3.36v-7.02h3.36v-6.73h8.46v6.73h5.54v7.02h-5.54v11.08c0,1.63,.69,2.32,2.57,2.32h3.02v7.17h-4.3c-5.74,0-9.74-2.42-9.74-9.59v-10.98Z"/><path d="M215.76,64.13h-3.36v-7.02h3.36v-6.73h8.46v6.73h5.54v7.02h-5.54v11.08c0,1.63,.69,2.32,2.57,2.32h3.02v7.17h-4.3c-5.74,0-9.74-2.42-9.74-9.59v-10.98Z"/><path d="M246.02,85.1c-8.11,0-13.95-5.44-13.95-14.19s5.74-14.19,13.95-14.19,13.75,5.34,13.75,13.75c0,.79-.05,1.63-.15,2.47h-19.14c.3,3.61,2.52,5.29,5.24,5.29,2.37,0,3.71-1.19,4.4-2.67h9c-1.33,5.39-6.23,9.54-13.11,9.54Zm-5.49-16.86h10.58c0-3.02-2.37-4.75-5.19-4.75s-4.9,1.68-5.39,4.75Z"/></g></svg>