<?xml version="1.0" encoding="UTF-8"?><svg id="Layer_1" xmlns="http://www.w3.org/2000/svg" viewBox="0 0 80 85.1"><defs><style>.cls-1{fill:#ea4343;}.cls-2{fill:#e69e19;}.cls-3{fill:#e66b19;}.cls-4{fill:#15bc34;}.cls-5{fill:#435fea;}.cls-6{fill:#1986e6;}.cls-7{fill:#6d43ea;}</style></defs><path class="cls-1" d="M80,12.63v-3.9c0-2.28-1.9-4.12-4.18-4.01C34.91,6.83,2.11,39.63,0,80.54c-.12,2.28,1.73,4.18,4.01,4.18h3.9C7.91,44.9,40.18,12.63,80,12.63Z"/><path class="cls-3" d="M7.91,84.72H15.92c0-35.39,28.69-64.08,64.08-64.08V12.63C40.25,12.63,7.91,44.97,7.91,84.72Z"/><path class="cls-3" d="M7.91,84.72C7.91,44.97,40.25,12.63,80,12.63,40.18,12.63,7.91,44.9,7.91,84.72Z"/><path class="cls-2" d="M15.92,84.72h8.01c0-30.97,25.1-56.07,56.07-56.07v-8.01C44.67,20.64,15.92,49.38,15.92,84.72Z"/><path class="cls-2" d="M15.92,84.72c0-35.33,28.75-64.08,64.08-64.08C44.61,20.64,15.92,49.33,15.92,84.72Z"/><path class="cls-4" d="M23.93,84.72h8.01c0-26.54,21.52-48.06,48.06-48.06v-8.01c-30.92,0-56.07,25.15-56.07,56.07Z"/><path class="cls-4" d="M23.93,84.72c0-30.92,25.15-56.07,56.07-56.07-30.97,0-56.07,25.1-56.07,56.07Z"/><path class="cls-6" d="M31.94,84.72h8.01c0-22.12,17.93-40.05,40.05-40.05v-8.01c-26.5,0-48.06,21.56-48.06,48.06Z"/><path class="cls-6" d="M31.94,84.72c0-26.5,21.56-48.06,48.06-48.06-26.54,0-48.06,21.52-48.06,48.06Z"/><path class="cls-5" d="M39.95,84.72h8.01c0-17.7,14.35-32.04,32.04-32.04v-8.01c-22.08,0-40.05,17.97-40.05,40.05Z"/><path class="cls-5" d="M39.95,84.72c0-22.08,17.97-40.05,40.05-40.05-22.12,0-40.05,17.93-40.05,40.05Z"/><path class="cls-7" d="M47.96,84.72h4.29c2.02,0,3.68-1.5,3.97-3.5,.77-5.23,3.22-9.91,6.79-13.48s8.26-6.03,13.48-6.79c1.99-.29,3.5-1.95,3.5-3.97v-4.29c-8.83,0-16.84,3.59-22.65,9.4s-9.4,13.81-9.4,22.65Z"/><path class="cls-7" d="M47.96,84.72c0-17.67,14.37-32.04,32.04-32.04-17.7,0-32.04,14.35-32.04,32.04Z"/></svg>