<svg viewBox="0 0 302.43 85.1" xmlns="http://www.w3.org/2000/svg">
  <path d="M102.19 4.9c8.51 0 12.76 4.9 12.76 10.93 0 4.35-2.37 8.46-7.72 10.04l8.01 13.75h-9.54l-7.22-13.11h-2.03v13.11h-8.46V4.9h14.19Zm-.5 7.02h-5.24v8.6h5.24c3.17 0 4.65-1.63 4.65-4.35 0-2.57-1.48-4.25-4.65-4.25ZM129.67 11.62c4.11 0 7.02 1.88 8.51 4.3v-3.91h8.46v27.6h-8.46V35.7c-1.53 2.42-4.45 4.3-8.56 4.3-6.73 0-12.12-5.54-12.12-14.24s5.39-14.14 12.17-14.14Zm2.47 7.37c-3.17 0-6.03 2.37-6.03 6.78s2.87 6.87 6.03 6.87 6.03-2.42 6.03-6.83-2.82-6.82-6.03-6.82ZM151.45 4.6c0-2.57 2.03-4.6 5.04-4.6s5 2.03 5 4.6-2.03 4.55-5 4.55-5.04-2.03-5.04-4.55Zm.79 7.42h8.46v27.6h-8.46v-27.6ZM185.27 24.63c0-3.76-2.08-5.84-5.29-5.84s-5.29 2.08-5.29 5.84v14.99h-8.46v-27.6h8.46v3.66c1.68-2.32 4.65-3.96 8.36-3.96 6.38 0 10.63 4.35 10.63 11.77v16.12h-8.41V24.62ZM216.03 11.62c6.82 0 12.17 5.44 12.17 14.14S222.81 40 216.03 40c-4.06 0-6.97-1.83-8.51-4.25v3.86h-8.46V3.02h8.46v12.9c1.53-2.47 4.55-4.3 8.51-4.3Zm-2.52 7.37c-3.17 0-6.03 2.42-6.03 6.82s2.87 6.83 6.03 6.83 6.08-2.47 6.08-6.87-2.87-6.78-6.08-6.78ZM244.91 40.01c-8.11 0-14.24-5.44-14.24-14.19s6.28-14.19 14.34-14.19 14.34 5.44 14.34 14.19-6.33 14.19-14.44 14.19Zm0-7.32c3.02 0 5.84-2.23 5.84-6.87s-2.77-6.87-5.74-6.87-5.74 2.18-5.74 6.87 2.57 6.87 5.64 6.87ZM259.94 12.02h8.46l3.91 19.73 4.65-19.73h8.95l4.7 19.63 3.86-19.63h7.96l-7.47 27.6h-9.35l-4.35-17.9-4.5 17.9h-9.3l-7.52-27.6ZM101.7 72.24h-5.24V84.7H88V49.99h13.7c8.51 0 12.76 4.8 12.76 11.18 0 5.74-3.91 11.08-12.76 11.08Zm-.64-6.73c3.36 0 4.8-1.68 4.8-4.35s-1.43-4.35-4.8-4.35h-4.6v8.7h4.6ZM128.39 56.71c4.11 0 7.02 1.88 8.51 4.3V57.1h8.46v27.6h-8.46v-3.91c-1.53 2.42-4.45 4.3-8.56 4.3-6.73 0-12.12-5.54-12.12-14.24s5.39-14.14 12.17-14.14Zm2.47 7.37c-3.17 0-6.03 2.37-6.03 6.78s2.87 6.87 6.03 6.87 6.03-2.42 6.03-6.83-2.82-6.82-6.03-6.82ZM150.91 48.11h8.46v36.6h-8.46v-36.6ZM177.31 85.1c-8.11 0-13.95-5.44-13.95-14.19s5.74-14.19 13.95-14.19 13.75 5.34 13.75 13.75c0 .79-.05 1.63-.15 2.47h-19.14c.3 3.61 2.52 5.29 5.24 5.29 2.37 0 3.71-1.19 4.4-2.67h9c-1.34 5.39-6.23 9.54-13.11 9.54Zm-5.49-16.86h10.58c0-3.02-2.37-4.75-5.19-4.75s-4.9 1.68-5.39 4.75ZM196.1 64.13h-3.36v-7.02h3.36v-6.73h8.46v6.73h5.54v7.02h-5.54v11.08c0 1.63.69 2.32 2.57 2.32h3.02v7.17h-4.3c-5.74 0-9.74-2.42-9.74-9.59V64.13ZM215.76 64.13h-3.36v-7.02h3.36v-6.73h8.46v6.73h5.54v7.02h-5.54v11.08c0 1.63.69 2.32 2.57 2.32h3.02v7.17h-4.3c-5.74 0-9.74-2.42-9.74-9.59V64.13ZM246.02 85.1c-8.11 0-13.95-5.44-13.95-14.19s5.74-14.19 13.95-14.19 13.75 5.34 13.75 13.75c0 .79-.05 1.63-.15 2.47h-19.14c.3 3.61 2.52 5.29 5.24 5.29 2.37 0 3.71-1.19 4.4-2.67h9c-1.33 5.39-6.23 9.54-13.11 9.54Zm-5.49-16.86h10.58c0-3.02-2.37-4.75-5.19-4.75s-4.9 1.68-5.39 4.75Z" style="fill: #e0e0e0"/>
  <path d="M76.5 60.97c1.99-.29 3.5-1.95 3.5-3.96v-4.29c-8.84 0-16.84 3.58-22.63 9.37S48 75.88 48 84.72h4.29c2.01 0 3.67-1.5 3.96-3.5.76-5.23 3.21-9.91 6.78-13.47s8.25-6.01 13.47-6.78Z" style="fill:#6d43ea"/>
  <path d="M80 52.72v-8c-22.09 0-40 17.91-40 40h8c0-17.67 14.33-32 32-32Z" style="fill:#435fea"/>
  <path d="M80 44.72v-8c-26.51 0-48 21.49-48 48h8c0-22.09 17.91-40 40-40Z" style="fill:#1986e6"/>
  <path d="M80 36.72v-8c-30.93 0-56 25.07-56 56h8c0-26.51 21.49-48 48-48Z" style="fill:#15bc34"/>
  <path d="M80 28.72v-8c-35.35 0-64 28.65-64 64h8c0-30.93 25.07-56 56-56Z" style="fill:#e69e19"/>
  <path d="M80 20.72v-8c-39.76 0-72 32.23-72 72h8c0-35.35 28.65-64 64-64Z" style="fill:#e66b19"/>
  <path d="M80 12.72V8.83c0-2.28-1.9-4.12-4.18-4C34.97 6.93 2.21 39.68.11 80.54c-.12 2.27 1.72 4.18 4 4.18H8c0-39.77 32.24-72 72-72Z" style="fill:#ea4343"/>
</svg>
